<?xml version="1.0" encoding="utf-8"?>
<!-- Generator: Adobe Illustrator 16.0.3, SVG Export Plug-In . SVG Version: 6.00 Build 0)  -->
<!DOCTYPE svg PUBLIC "-//W3C//DTD SVG 1.1//EN" "http://www.w3.org/Graphics/SVG/1.1/DTD/svg11.dtd">
<svg version="1.1" id="Layer_1" xmlns="http://www.w3.org/2000/svg" xmlns:xlink="http://www.w3.org/1999/xlink" x="0px" y="0px"
	 width="360px" height="288.954px" viewBox="0 0 360 288.954" enable-background="new 0 0 360 288.954" xml:space="preserve">
<path fill="#1C4178" d="M44.309,0.016c7.087-0.261,17.707,2.757,23.477,5.907c8.264,4.586,19.148,15.732,21.112,28.591
	c1.316,7.866-0.653,16.129-8.388,20.72c-10.493,6.289-27.02-2.105-25.051-16.4c1.704-11.668,1.182-20.458-6.559-27.144
	c0,0-11.015-9.444-25.176-6.028C30.41,0.412,44.309,0.016,44.309,0.016 M81.429,73.592c-4.982,6.029-11.808,11.799-20.594,14.95
	c-9.705,3.41-22.292,5.375-34.488-3.015c-8.394-5.906-7.213-16.525-5.244-21.117c4.586-9.839,18.093-13.376,27.406-4.591
	c0.653,0.658,11.011,9.182,21.248,6.952c0,0,14.16-3.149,20.584-19.017C91.917,58.901,81.429,73.592,81.429,73.592 M11.001,75.427
	c-7.605-9.705-9.443-16.13-10.884-24.659c-0.915-16.521,3.541-28.852,13.768-37.637c6.555-5.637,14.557-7.078,21.639-3.275
	c10.101,5.244,12.07,19.147,3.938,26.883c-8.921,8.523-21.383,4.982-24.789,22.819c0,0-2.361,12.065,6.293,24.261
	C15.854,80.937,11.001,75.427,11.001,75.427"/>
<path fill="#2E2E2C" d="M18.028,134.531c0,2.775-0.858,4.861-2.478,6.284c-1.488,1.325-3.476,2.081-5.72,2.081
	c-2.25,0-4.232-0.756-5.72-2.081c-1.619-1.423-2.478-3.509-2.478-6.284v-16.563h3.569v16.464c0,4.531,3.303,5.193,4.628,5.193
	c1.324,0,4.628-0.663,4.628-5.193v-16.464h3.569V134.531z"/>
<rect x="23.748" y="138.403" fill="#2E2E2C" width="3.438" height="4.036"/>
<path fill="#2E2E2C" d="M34.194,136.513c0.429,1.918,2.016,3.145,3.966,3.112c2.216-0.032,3.938-1.558,3.938-4.133
	c0-2.744-2.249-3.336-3.938-4.003c-3.271-1.255-4.064-1.651-5.188-2.744c-1.12-1.086-1.652-2.874-1.652-4.595
	c0-2.842,2.216-6.645,6.84-6.645c4.068,0,5.491,1.853,6.35,4.83l-2.907,1.32c-0.266-1.722-1.983-2.878-3.443-2.878
	c-2.109,0-3.271,1.922-3.271,3.341c0,2.351,2.216,2.976,3.271,3.374c3.079,1.156,7.507,2.118,7.507,8.001
	c0,4.264-3.406,7.469-7.507,7.408c-3.341-0.069-5.814-1.89-6.873-5.062L34.194,136.513z"/>
<rect x="49.367" y="138.403" fill="#2E2E2C" width="3.438" height="4.036"/>
<path fill="#2E2E2C" d="M70.525,139.163h3.607c4.297,0,9.028-2.15,9.028-8.897c0-3.7-2.286-9.024-8.963-9.024h-3.672V139.163z
	 M66.957,117.968h7.273c5.091,0,8.137,1.95,9.984,4.497c1.754,2.445,2.516,5.422,2.516,7.801c0,3.308-1.26,6.845-3.08,8.632
	c-2.809,2.771-6.117,3.536-9.55,3.536h-7.143V117.968z"/>
<path fill="#2E2E2C" d="M104.15,132.123c-0.163-2.683-2.608-5.361-5.916-5.361c-3.303,0-5.752,2.678-5.92,5.361H104.15z
	 M92.314,134.764c0.863,3.537,3.705,4.895,6.019,4.992c1.75,0.066,3.732-0.461,4.889-2.412l3.438,0.989
	c-2.145,4.097-5.617,4.563-8.458,4.563c-5.192,0-9.326-4.465-9.326-9.653c0-5.487,4.231-9.621,9.387-9.621
	c4.959,0,9.294,4.031,9.327,9.387c0,0.598-0.066,1.526-0.098,1.754H92.314z"/>
<path fill="#2E2E2C" d="M119.225,126.762c-3.602,0-6.112,3.108-6.112,6.481c0,3.705,2.739,6.513,6.215,6.513
	c3.238,0,6.182-2.58,6.182-6.443C125.51,130.033,122.962,126.762,119.225,126.762 M109.74,124.448h3.135v2.482h0.07
	c1.651-2.379,4.166-3.307,6.508-3.307c6.219,0,9.491,4.992,9.491,9.886c0,4.628-3.467,9.388-9.252,9.388
	c-3.84,0-5.752-1.95-6.453-3.107h-0.061v8.757h-3.438V124.448z"/>
<path fill="#2E2E2C" d="M140.584,126.762c-4.236,0-6.284,3.672-6.284,6.546c0,3.308,2.612,6.448,6.247,6.448
	c3.606,0,6.383-2.939,6.383-6.448C146.93,129.407,144.121,126.762,140.584,126.762 M146.864,142.434v-2.84h-0.065
	c-1.326,2.244-3.737,3.303-6.215,3.303c-6.182,0-9.718-4.731-9.718-9.556c0-4.46,3.135-9.718,9.718-9.718
	c2.542,0,4.889,1.059,6.215,3.074h0.065v-2.244h3.439v17.98H146.864z"/>
<path fill="#2E2E2C" d="M153.709,142.434v-17.98h3.206v1.32h0.065c1.461-2.053,3.802-2.114,4.666-2.15v3.537
	c-0.532,0-1.657,0.233-2.483,0.657c-1.091,0.598-2.015,1.988-2.015,4.601v10.017H153.709z"/>
<polygon fill="#2E2E2C" points="169.115,142.434 165.676,142.434 165.676,127.261 163.194,127.261 163.194,124.122 165.676,124.122 
	165.676,117.968 169.115,117.968 169.115,124.122 172.124,124.122 172.124,127.261 169.115,127.261 "/>
<path fill="#2E2E2C" d="M198.736,142.434v-10.18c0-1.553-0.195-5.492-4.329-5.492c-4.4,0-4.366,3.938-4.366,5.459v10.213h-3.436
	v-10.18c0-1.521,0-2.547-0.765-3.77c-0.826-1.325-2.146-1.722-3.401-1.722c-4.53,0-4.53,4.102-4.53,5.459v10.213h-3.439v-17.98
	h3.173v1.651h0.066c0.662-0.766,1.852-2.482,5.252-2.482c2.222,0,4.764,1.059,5.693,3.074c0.593-0.924,1.949-3.074,6.045-3.074
	c3.076,0,5.26,1.259,6.45,3.307c0.66,1.19,1.026,2.674,1.026,4.46v11.043H198.736z"/>
<path fill="#2E2E2C" d="M219.825,132.123c-0.158-2.683-2.607-5.361-5.91-5.361c-3.308,0-5.753,2.678-5.922,5.361H219.825z
	 M207.993,134.764c0.859,3.537,3.705,4.895,6.016,4.992c1.754,0.066,3.736-0.461,4.894-2.412l3.438,0.989
	c-2.152,4.097-5.618,4.563-8.459,4.563c-5.198,0-9.327-4.465-9.327-9.653c0-5.487,4.233-9.621,9.387-9.621
	c4.961,0,9.296,4.031,9.327,9.387c0,0.598-0.07,1.526-0.102,1.754H207.993z"/>
<path fill="#2E2E2C" d="M237.878,142.434v-9.951c0-1.419,0-5.721-4.56-5.721c-2.878,0-4.829,2.017-4.829,5.688v9.984h-3.438v-17.98
	h3.206v1.619h0.065c1.856-2.449,4.632-2.449,5.356-2.449c2.846,0,5.187,1.227,6.48,3.275c0.765,1.19,1.16,2.641,1.16,4.689v10.847
	H237.878z"/>
<polygon fill="#2E2E2C" points="249.089,142.434 245.65,142.434 245.65,127.261 243.169,127.261 243.169,124.122 245.65,124.122 
	245.65,117.968 249.089,117.968 249.089,124.122 252.099,124.122 252.099,127.261 249.089,127.261 "/>
<path fill="#2E2E2C" d="M10.358,159.823c-3.868,0-6.443,3.206-6.443,6.481c0,3.303,2.607,6.513,6.443,6.513
	c3.705,0,6.447-3.074,6.447-6.55C16.805,163.028,14.23,159.823,10.358,159.823 M10.358,175.957c-6.146,0-9.883-5.123-9.883-9.751
	c0-4.992,4.2-9.523,9.883-9.523c5.556,0,9.886,4.363,9.886,9.583C20.244,170.736,16.577,175.957,10.358,175.957"/>
<path fill="#2E2E2C" d="M23.188,175.495v-15.835h-1.95v-3.139h1.95v-0.234c0-1.95,0.723-3.335,2.183-4.265
	c1.451-0.928,2.445-0.993,4.46-0.993l-0.657,3.145c-2.286,0-2.548,0.825-2.548,2.113v0.234h2.879v3.139h-2.879v15.835H23.188z"/>
<polygon fill="#2E2E2C" points="43.585,175.495 43.585,154.299 38.561,154.299 38.561,151.028 52.181,151.028 52.181,154.299 
	47.155,154.299 47.155,175.495 "/>
<path fill="#2E2E2C" d="M54.956,175.495v-17.981h3.206v1.321h0.07c1.456-2.053,3.802-2.114,4.661-2.151v3.537
	c-0.532,0-1.651,0.234-2.478,0.663c-1.096,0.598-2.016,1.987-2.016,4.596v10.017H54.956z"/>
<path fill="#2E2E2C" d="M74.431,159.823c-4.231,0-6.28,3.672-6.28,6.546c0,3.308,2.608,6.452,6.243,6.452
	c3.611,0,6.387-2.944,6.387-6.452C80.78,162.473,77.967,159.823,74.431,159.823 M80.711,175.495v-2.841h-0.066
	c-1.324,2.245-3.737,3.304-6.214,3.304c-6.182,0-9.719-4.727-9.719-9.555c0-4.461,3.141-9.719,9.719-9.719
	c2.543,0,4.89,1.06,6.214,3.075h0.066v-2.245h3.442v17.981H80.711z"/>
<path fill="#2E2E2C" d="M99.69,175.495v-9.952c0-1.419,0-5.72-4.563-5.72c-2.878,0-4.829,2.016-4.829,5.688v9.984h-3.439v-17.981
	h3.206v1.619h0.07c1.852-2.449,4.628-2.449,5.352-2.449c2.846,0,5.193,1.228,6.48,3.275c0.766,1.19,1.162,2.641,1.162,4.689v10.848
	H99.69z"/>
<path fill="#2E2E2C" d="M114.928,161.377c-0.657-1.288-2.081-1.554-3.341-1.554c-1.255,0-2.146,0.794-2.146,1.95
	c0,1.521,1.321,1.918,2.841,2.379c1.423,0.43,5.524,1.586,5.524,5.954c0,3.238-2.253,5.851-6.149,5.851
	c-2.314,0-5.687-1.782-6.481-4.83l2.776-0.989c0.299,1.783,1.848,2.678,3.77,2.678c1.554,0,2.642-0.956,2.642-2.514
	c0-1.619-1.419-2.179-3.206-2.809c-1.983-0.728-5.156-1.619-5.156-5.52c0-2.71,2.282-5.291,5.752-5.291
	c2.085,0,4.862,1.194,5.949,3.705L114.928,161.377z"/>
<path fill="#2E2E2C" d="M130.003,159.823c-3.603,0-6.112,3.112-6.112,6.481c0,3.704,2.738,6.513,6.214,6.513
	c3.238,0,6.182-2.579,6.182-6.443C136.288,163.093,133.74,159.823,130.003,159.823 M120.518,157.509h3.135v2.482h0.069
	c1.652-2.379,4.167-3.308,6.509-3.308c6.219,0,9.489,4.993,9.489,9.887c0,4.628-3.466,9.388-9.252,9.388
	c-3.839,0-5.752-1.95-6.452-3.108h-0.061v8.758h-3.438V157.509z"/>
<path fill="#2E2E2C" d="M151.856,159.823c-3.867,0-6.443,3.206-6.443,6.481c0,3.303,2.608,6.513,6.443,6.513
	c3.705,0,6.443-3.074,6.443-6.55C158.3,163.028,155.725,159.823,151.856,159.823 M151.856,175.957c-6.149,0-9.886-5.123-9.886-9.751
	c0-4.992,4.198-9.523,9.886-9.523c5.557,0,9.887,4.363,9.887,9.583C161.743,170.736,158.071,175.957,151.856,175.957"/>
<path fill="#2E2E2C" d="M164.585,175.495v-17.981h3.205v1.321h0.069c1.457-2.053,3.803-2.114,4.662-2.151v3.537
	c-0.533,0-1.652,0.234-2.478,0.663c-1.097,0.598-2.016,1.987-2.016,4.596v10.017H164.585z"/>
<polygon fill="#2E2E2C" points="179.99,175.495 176.552,175.495 176.552,160.322 174.07,160.322 174.07,157.182 176.552,157.182 
	176.552,151.028 179.99,151.028 179.99,157.182 183.001,157.182 183.001,160.322 179.99,160.322 "/>
<path fill="#2E2E2C" d="M193.777,159.823c-4.23,0-6.28,3.672-6.28,6.546c0,3.308,2.608,6.452,6.247,6.452
	c3.607,0,6.383-2.944,6.383-6.452C200.127,162.473,197.318,159.823,193.777,159.823 M200.057,175.495v-2.841h-0.065
	c-1.323,2.245-3.736,3.304-6.214,3.304c-6.182,0-9.719-4.727-9.719-9.555c0-4.461,3.14-9.719,9.719-9.719
	c2.548,0,4.891,1.06,6.214,3.075h0.065v-2.245h3.443v17.981H200.057z"/>
<polygon fill="#2E2E2C" points="211.067,175.495 207.629,175.495 207.629,160.322 205.147,160.322 205.147,157.182 207.629,157.182 
	207.629,151.028 211.067,151.028 211.067,157.182 214.077,157.182 214.077,160.322 211.067,160.322 "/>
<path fill="#2E2E2C" d="M216.42,175.499h3.438v-18.317h-3.438V175.499z M216.42,155.063h3.438v-4.031h-3.438V155.063z"/>
<path fill="#2E2E2C" d="M231.961,159.823c-3.867,0-6.442,3.206-6.442,6.481c0,3.303,2.606,6.513,6.442,6.513
	c3.705,0,6.447-3.074,6.447-6.55C238.408,163.028,235.833,159.823,231.961,159.823 M231.961,175.957
	c-6.148,0-9.883-5.123-9.883-9.751c0-4.992,4.2-9.523,9.883-9.523c5.557,0,9.886,4.363,9.886,9.583
	C241.847,170.736,238.177,175.957,231.961,175.957"/>
<path fill="#2E2E2C" d="M256.823,175.495v-9.952c0-1.419,0-5.72-4.562-5.72c-2.874,0-4.825,2.016-4.825,5.688v9.984h-3.438v-17.981
	h3.205v1.619h0.066c1.852-2.449,4.629-2.449,5.356-2.449c2.841,0,5.188,1.228,6.479,3.275c0.761,1.19,1.152,2.641,1.152,4.689
	v10.848H256.823z"/>
<path fill="#2E2E2C" d="M8.234,203.559h1.885c1.19,0,3.896,0,3.896-2.944c0-2.874-2.776-2.874-4.129-2.874H8.234V203.559z
	 M2.249,192.249h7.339c4.53,0,6.215,0.696,7.539,1.787c1.918,1.586,2.874,3.998,2.874,6.48c0,2.478-1.026,5.087-2.575,6.411
	c-1.689,1.423-3.341,2.113-7.138,2.113H8.234v7.675H2.249V192.249z"/>
<path fill="#2E2E2C" d="M28.53,216.715h-5.487v-18.344h5.487V216.715z M28.53,196.415h-5.487v-4.166h5.487V196.415z"/>
<path fill="#2E2E2C" d="M46.95,207.557c0-2.184-1.586-4.693-4.596-4.693c-3.014,0-4.596,2.51-4.596,4.693
	c0,2.314,1.718,4.661,4.596,4.661C45.229,212.218,46.95,209.872,46.95,207.557 M32.501,198.697h5.155v1.684h0.033h0.069
	c1.092-1.389,2.907-2.645,5.716-2.645c6.518,0,8.963,5.724,8.963,9.985c0,5.289-3.7,9.62-8.931,9.62
	c-3.303,0-4.856-1.582-5.514-2.281v7.768h-5.491V198.697z"/>
<path fill="#2E2E2C" d="M68.375,205.508c-0.233-1.092-1.325-3.14-4.166-3.14c-2.842,0-3.938,2.048-4.167,3.14H68.375z
	 M71.911,213.277c-0.76,1.087-0.863,1.288-2.417,2.38c-1.516,1.059-3.335,1.652-5.221,1.652c-5.258,0-9.724-4.265-9.724-9.72
	c0-5.127,4.036-9.849,9.626-9.849c5.584,0,9.681,4.428,9.681,10.013c0,0.732-0.066,1.026-0.126,1.455H59.977
	c0.327,2.184,2.146,3.472,4.297,3.472c1.685,0,2.049-0.266,3.005-1.06L71.911,213.277z"/>
<rect x="76.899" y="192.249" fill="#2E2E2C" width="5.491" height="24.466"/>
<path fill="#2E2E2C" d="M91.843,216.715h-5.487v-18.344h5.487V216.715z M91.843,196.415h-5.487v-4.166h5.487V196.415z"/>
<path fill="#2E2E2C" d="M95.813,198.697h5.127v1.619h0.061c0.565-0.896,1.718-2.58,4.992-2.58c1.754,0,3.7,0.732,4.694,1.591
	c0.989,0.858,2.118,2.314,2.118,5.916v11.469h-5.491v-10.013c0-1.288,0-3.803-2.874-3.803c-3.141,0-3.141,2.711-3.141,3.835v9.98
	h-5.487V198.697z"/>
<path fill="#2E2E2C" d="M129.537,205.508c-0.234-1.092-1.326-3.14-4.167-3.14c-2.846,0-3.938,2.048-4.166,3.14H129.537z
	 M133.068,213.277c-0.756,1.087-0.858,1.288-2.412,2.38c-1.516,1.059-3.336,1.652-5.221,1.652c-5.258,0-9.723-4.265-9.723-9.72
	c0-5.127,4.036-9.849,9.625-9.849c5.585,0,9.682,4.428,9.682,10.013c0,0.732-0.065,1.026-0.126,1.455h-13.759
	c0.332,2.184,2.151,3.472,4.302,3.472c1.684,0,2.048-0.266,3.004-1.06L133.068,213.277z"/>
<path fill="#2E2E2C" d="M157.469,212.218c3.439,0,4.591-2.911,4.591-4.699c0-2.211-1.516-4.655-4.624-4.655
	c-3.145,0-4.53,2.641-4.53,4.726C152.907,209.307,154.166,212.218,157.469,212.218 M167.552,216.715h-5.491v-1.982H162
	c-0.928,1.786-3.21,2.612-5.356,2.612c-5.818,0-9.224-4.567-9.224-9.826c0-6.013,4.329-9.783,9.224-9.783
	c3.004,0,4.693,1.46,5.356,2.58h0.061v-1.619h5.491V216.715z"/>
<path fill="#2E2E2C" d="M171.121,198.697h5.127v1.619h0.061c0.564-0.896,1.722-2.58,4.996-2.58c1.749,0,3.7,0.732,4.693,1.591
	c0.99,0.858,2.118,2.314,2.118,5.916v11.469h-5.491v-10.013c0-1.288,0-3.803-2.873-3.803c-3.141,0-3.141,2.711-3.141,3.835v9.98
	h-5.491V198.697z"/>
<path fill="#2E2E2C" d="M201.243,212.186c3.438,0,4.693-2.81,4.693-4.728c0-2.216-1.591-4.595-4.628-4.595
	c-3.173,0-4.662,2.482-4.662,4.595C196.646,210.3,198.663,212.186,201.243,212.186 M211.124,216.715h-5.221v-1.982h-0.065
	c-0.466,0.756-1.786,2.58-5.491,2.58c-5.551,0-9.191-4.303-9.191-9.826c0-6.215,4.433-9.75,9.093-9.75
	c3.243,0,4.797,1.585,5.39,2.183v-7.67h5.486V216.715z"/>
<polygon fill="#2E2E2C" points="2.249,225.31 8.5,225.31 8.5,234.501 16.498,234.501 16.498,225.31 22.745,225.31 22.745,249.777 
	16.498,249.777 16.498,239.988 8.5,239.988 8.5,249.777 2.249,249.777 "/>
<path fill="#2E2E2C" d="M36.14,245.279c3.434,0,4.591-2.907,4.591-4.694c0-2.216-1.517-4.66-4.624-4.66
	c-3.145,0-4.53,2.641-4.53,4.727C31.577,242.372,32.832,245.279,36.14,245.279 M46.222,249.777h-5.491v-1.983H40.67
	c-0.929,1.787-3.211,2.613-5.356,2.613c-5.818,0-9.224-4.567-9.224-9.822c0-6.019,4.325-9.788,9.224-9.788
	c3.004,0,4.693,1.461,5.356,2.58h0.061v-1.618h5.491V249.777z"/>
<polygon fill="#2E2E2C" points="61.959,245.611 61.959,249.777 48.303,249.777 48.303,246.006 56.039,235.592 48.303,235.592 
	48.303,231.431 61.959,231.431 61.959,235.592 54.784,245.611 "/>
<path fill="#2E2E2C" d="M73.666,245.279c3.434,0,4.591-2.907,4.591-4.694c0-2.216-1.521-4.66-4.628-4.66
	c-3.14,0-4.526,2.641-4.526,4.727C69.102,242.372,70.357,245.279,73.666,245.279 M83.743,249.777h-5.486v-1.983h-0.066
	c-0.924,1.787-3.21,2.613-5.356,2.613c-5.817,0-9.224-4.567-9.224-9.822c0-6.019,4.33-9.788,9.224-9.788
	c3.005,0,4.693,1.461,5.356,2.58h0.066v-1.618h5.486V249.777z"/>
<path fill="#2E2E2C" d="M87.284,231.758h5.151v1.618h0.07c0.461-0.891,1.423-2.58,4.595-2.58l-0.989,5.524
	c-2.547,0.065-3.341,0.593-3.341,3.373v10.078h-5.487V231.758z"/>
<path fill="#2E2E2C" d="M108.541,245.247c3.438,0,4.693-2.809,4.693-4.727c0-2.216-1.591-4.596-4.628-4.596
	c-3.173,0-4.661,2.481-4.661,4.596C103.945,243.361,105.961,245.247,108.541,245.247 M118.423,249.777h-5.221v-1.983h-0.065
	c-0.467,0.76-1.788,2.58-5.492,2.58c-5.553,0-9.187-4.302-9.187-9.825c0-6.216,4.428-9.752,9.089-9.752
	c3.242,0,4.796,1.587,5.388,2.185v-7.671h5.487V249.777z"/>
<path fill="#2E2E2C" d="M131.417,245.213c2.379,0,4.396-1.951,4.396-4.629s-2.016-4.628-4.396-4.628s-4.396,1.95-4.396,4.628
	S129.037,245.213,131.417,245.213 M131.417,230.834c6.682,0,9.887,5.253,9.887,9.75c0,4.493-3.205,9.757-9.887,9.757
	c-6.676,0-9.881-5.264-9.881-9.757C121.535,236.087,124.74,230.834,131.417,230.834"/>
<path fill="#2E2E2C" d="M151.385,250.37c-2.015,0-4.063-0.725-5.389-2.31c-1.483-1.788-1.651-3.407-1.651-5.66v-10.974h5.487v10.148
	c0,2.15,0.527,3.676,2.972,3.676c2.417,0,2.944-1.558,2.944-3.676v-10.148h5.492V242.4c0,2.253-0.168,3.872-1.657,5.66
	c-1.32,1.585-3.374,2.31-5.389,2.31H151.385z"/>
<path fill="#2E2E2C" d="M174.494,236.255c-0.728-1.026-1.852-1.428-3.042-1.06c-0.728,0.229-1.32,0.495-1.554,1.223
	c-0.429,1.292,1.358,1.587,2.809,1.983c3.112,0.896,6.415,1.786,6.415,5.752c0,3.868-3.667,6.084-7.47,6.253
	c-3.569,0.158-6.35-1.526-7.801-4.764l4.46-0.99c0.761,1.19,2.016,1.68,3.406,1.354c0.896-0.233,1.918-0.527,1.918-1.423
	c0-1.423-1.325-1.685-4.861-2.939c-2.342-0.863-4.363-2.314-4.363-4.791c0-3.644,3.472-5.856,7.106-6.057
	c3.373-0.163,5.986,1.423,7.372,4.465L174.494,236.255z"/>
<polygon fill="#2E2E2C" points="192.312,225.31 200.352,225.31 205.209,241.411 205.273,241.411 210.069,225.31 218.132,225.31 
	218.132,249.777 212.379,249.777 212.579,231.459 212.515,231.394 206.958,249.777 203.491,249.777 197.935,231.394 197.87,231.459 
	198.065,249.777 192.312,249.777 "/>
<path fill="#2E2E2C" d="M231.526,245.279c3.436,0,4.592-2.907,4.592-4.694c0-2.216-1.521-4.66-4.623-4.66
	c-3.145,0-4.531,2.641-4.531,4.727C226.964,242.372,228.219,245.279,231.526,245.279 M241.604,249.777h-5.486v-1.983h-0.065
	c-0.924,1.787-3.209,2.613-5.353,2.613c-5.821,0-9.229-4.567-9.229-9.822c0-6.019,4.332-9.788,9.229-9.788
	c3.006,0,4.69,1.461,5.353,2.58h0.065v-1.618h5.486V249.777z"/>
<polygon fill="#2E2E2C" points="251.758,231.426 254.397,231.426 254.397,235.592 251.758,235.592 251.758,249.772 246.266,249.772 
	246.266,235.592 243.559,235.592 243.559,231.426 246.266,231.426 246.266,225.31 251.758,225.31 "/>
<path fill="#2E2E2C" d="M269.613,238.569c-0.233-1.091-1.325-3.139-4.168-3.139c-2.84,0-3.938,2.048-4.166,3.139H269.613z
	 M273.15,246.338c-0.762,1.087-0.863,1.287-2.417,2.379c-1.518,1.06-3.337,1.652-5.221,1.652c-5.26,0-9.725-4.26-9.725-9.719
	c0-5.128,4.036-9.85,9.626-9.85c5.584,0,9.68,4.428,9.68,10.013c0,0.732-0.064,1.026-0.13,1.456h-13.749
	c0.326,2.183,2.146,3.471,4.298,3.471c1.688,0,2.048-0.266,3.004-1.06L273.15,246.338z"/>
<path fill="#2E2E2C" d="M278.109,231.758h5.155v1.618h0.065c0.462-0.891,1.424-2.58,4.596-2.58l-0.989,5.524
	c-2.547,0.065-3.345,0.593-3.345,3.373v10.078h-5.482V231.758z"/>
<path fill="#2E2E2C" d="M295.629,249.777h-5.488v-18.346h5.488V249.777z M295.629,229.476h-5.488v-4.166h5.488V229.476z"/>
<path fill="#2E2E2C" d="M308.79,245.279c3.435,0,4.591-2.907,4.591-4.694c0-2.216-1.521-4.66-4.623-4.66
	c-3.145,0-4.531,2.641-4.531,4.727C304.227,242.372,305.481,245.279,308.79,245.279 M318.867,249.777h-5.486v-1.983h-0.064
	c-0.925,1.787-3.21,2.613-5.353,2.613c-5.822,0-9.229-4.567-9.229-9.822c0-6.019,4.329-9.788,9.229-9.788
	c3.006,0,4.689,1.461,5.353,2.58h0.064v-1.618h5.486V249.777z"/>
<rect x="322.441" y="225.31" fill="#2E2E2C" width="5.487" height="24.467"/>
<path fill="#2E2E2C" d="M341.021,236.255c-0.729-1.026-1.854-1.428-3.043-1.06c-0.729,0.229-1.32,0.495-1.555,1.223
	c-0.429,1.292,1.359,1.587,2.81,1.983c3.111,0.896,6.416,1.786,6.416,5.752c0,3.868-3.669,6.084-7.471,6.253
	c-3.568,0.158-6.35-1.526-7.802-4.764l4.462-0.99c0.759,1.19,2.015,1.68,3.405,1.354c0.896-0.233,1.917-0.527,1.917-1.423
	c0-1.423-1.325-1.685-4.86-2.939c-2.343-0.863-4.362-2.314-4.362-4.791c0-3.644,3.472-5.856,7.104-6.057
	c3.373-0.163,5.987,1.423,7.373,4.465L341.021,236.255z"/>
<path fill="#2E2E2C" d="M13.82,265.513c-0.462-1.814-2.413-2.911-4.232-2.378c-1.087,0.324-2.146,0.759-2.146,1.912
	c0,1.461,0.663,1.754,5.057,3.737c4.563,2.048,5.716,4.166,5.716,7.007c0,3.575-4.292,6.909-8.659,7.045
	c-3.602,0.099-6.877-0.993-8.132-4.361l-0.891-2.413l4.232-1.324c0.13,2.276,2.678,4.031,4.856,3.335
	c1.26-0.393,2.053-1.092,2.379-2.347c0.598-2.276-1.021-2.048-4.792-3.602c-1.716-0.728-5.981-2.412-5.981-7.007
	c0-4.597,4.265-6.813,8.562-6.879c2.641-0.031,4.396,0.593,6.285,2.445c1.255,1.228,1.815,2.152,2.276,3.841L13.82,265.513z"/>
<path fill="#2E2E2C" d="M30.153,278.34c3.439,0,4.591-2.913,4.591-4.699c0-2.211-1.516-4.656-4.624-4.656
	c-3.145,0-4.53,2.641-4.53,4.727C25.591,275.427,26.851,278.34,30.153,278.34 M40.236,282.836h-5.492v-1.982h-0.061
	c-0.928,1.787-3.21,2.613-5.356,2.613c-5.818,0-9.224-4.568-9.224-9.826c0-6.014,4.33-9.784,9.224-9.784
	c3.004,0,4.693,1.461,5.356,2.581h0.061v-1.619h5.492V282.836z"/>
<path fill="#2E2E2C" d="M44.006,267.992h-2.048v-4.168h2.048v-0.294c0-5.158,4.33-5.621,7.008-5.621h0.793l-0.659,4.133H50.52
	c-0.462,0-1.022,0.163-1.022,1.717v0.065h2.31v4.168h-2.31v14.845h-5.491V267.992z"/>
<path fill="#2E2E2C" d="M67.018,271.63c-0.234-1.092-1.321-3.14-4.167-3.14c-2.842,0-3.933,2.048-4.166,3.14H67.018z
	 M70.553,279.398c-0.76,1.088-0.858,1.288-2.412,2.38c-1.521,1.059-3.341,1.65-5.226,1.65c-5.258,0-9.718-4.259-9.718-9.717
	c0-5.127,4.031-9.849,9.621-9.849c5.584,0,9.686,4.426,9.686,10.013c0,0.73-0.069,1.026-0.13,1.455H58.619
	c0.331,2.184,2.15,3.47,4.297,3.47c1.685,0,2.053-0.266,3.009-1.058L70.553,279.398z"/>
<polygon fill="#2E2E2C" points="82.124,264.487 84.77,264.487 84.77,268.655 82.124,268.655 82.124,282.833 76.633,282.833 
	76.633,268.655 73.926,268.655 73.926,264.487 76.633,264.487 76.633,258.372 82.124,258.372 "/>
<polygon fill="#2E2E2C" points="104.109,264.487 94.917,288.954 89.099,288.954 92.011,281.914 85.199,264.487 91.055,264.487 
	94.721,275.133 94.786,275.133 98.291,264.487 "/>
<path fill="#2E2E2C" d="M124.376,274.34h5.123l-2.515-8.365h-0.028h-0.065L124.376,274.34z M122.655,279.299l-1.288,3.533h-6.714
	l9.821-24.461h4.927l9.718,24.461h-6.779l-1.19-3.533H122.655z"/>
<path fill="#2E2E2C" d="M150.625,278.306c3.438,0,4.699-2.809,4.699-4.727c0-2.215-1.592-4.595-4.634-4.595
	c-3.172,0-4.661,2.482-4.661,4.595C146.029,276.422,148.044,278.306,150.625,278.306 M160.512,282.836h-5.226v-1.982h-0.065
	c-0.462,0.761-1.787,2.58-5.487,2.58c-5.552,0-9.192-4.302-9.192-9.826c0-6.214,4.433-9.751,9.089-9.751
	c3.243,0,4.796,1.586,5.39,2.184v-7.669h5.491V282.836z"/>
<path fill="#2E2E2C" d="M164.478,264.819h5.127v1.619h0.061c0.429-0.762,1.624-2.581,5.062-2.581c1.619,0,3.835,0.564,5.286,3.28
	c1.13-1.787,3.01-3.28,5.822-3.28c1.288,0,3.336,0.303,4.825,1.853c1.718,1.814,1.988,3.047,1.988,7.111v10.012h-5.491v-9.752
	c0-1.483,0-4.063-2.81-4.063c-3.043,0-3.043,2.775-3.043,3.803v10.012h-5.491v-9.98c0-0.993,0-3.834-2.743-3.834
	c-3.103,0-3.103,2.977-3.103,4.063v9.752h-5.491V264.819z"/>
<path fill="#2E2E2C" d="M202.003,282.836h-5.492v-18.345h5.492V282.836z M202.003,262.538h-5.492v-4.166h5.492V262.538z"/>
<path fill="#2E2E2C" d="M205.968,264.819h5.128v1.619h0.062c0.564-0.892,1.721-2.581,4.992-2.581c1.754,0,3.704,0.733,4.698,1.591
	c0.988,0.858,2.118,2.315,2.118,5.917v11.468h-5.491v-10.012c0-1.289,0-3.803-2.879-3.803c-3.136,0-3.136,2.711-3.136,3.834v9.98
	h-5.492V264.819z"/>
<path fill="#2E2E2C" d="M232.348,282.836h-5.486v-18.345h5.486V282.836z M232.348,262.538h-5.486v-4.166h5.486V262.538z"/>
<path fill="#2E2E2C" d="M245.445,269.315c-0.728-1.021-1.858-1.422-3.047-1.058c-0.724,0.233-1.316,0.493-1.55,1.222
	c-0.433,1.293,1.354,1.587,2.809,1.982c3.108,0.896,6.416,1.788,6.416,5.754c0,3.867-3.667,6.083-7.474,6.252
	c-3.57,0.164-6.346-1.525-7.802-4.764l4.465-0.989c0.756,1.189,2.017,1.681,3.407,1.354c0.889-0.234,1.912-0.527,1.912-1.419
	c0-1.428-1.32-1.689-4.856-2.944c-2.347-0.863-4.363-2.313-4.363-4.792c0-3.644,3.467-5.855,7.105-6.056
	c3.373-0.163,5.986,1.424,7.372,4.465L245.445,269.315z"/>
<polygon fill="#2E2E2C" points="260.058,264.487 262.703,264.487 262.703,268.655 260.058,268.655 260.058,282.833 254.57,282.833 
	254.57,268.655 251.855,268.655 251.855,264.487 254.57,264.487 254.57,258.372 260.058,258.372 "/>
<path fill="#2E2E2C" d="M265.05,264.819h5.156v1.619h0.064c0.463-0.892,1.423-2.581,4.595-2.581l-0.987,5.525
	c-2.549,0.064-3.345,0.592-3.345,3.373v10.077h-5.483V264.819z"/>
<path fill="#2E2E2C" d="M286.273,278.34c3.434,0,4.592-2.913,4.592-4.699c0-2.211-1.517-4.656-4.625-4.656
	c-3.145,0-4.529,2.641-4.529,4.727C281.711,275.427,282.971,278.34,286.273,278.34 M296.356,282.836h-5.491v-1.982h-0.062
	c-0.928,1.787-3.21,2.613-5.356,2.613c-5.818,0-9.223-4.568-9.223-9.826c0-6.014,4.324-9.784,9.223-9.784
	c3.005,0,4.693,1.461,5.356,2.581h0.062v-1.619h5.491V282.836z"/>
<polygon fill="#2E2E2C" points="306.505,264.487 309.15,264.487 309.15,268.655 306.505,268.655 306.505,282.833 301.017,282.833 
	301.017,268.655 298.307,268.655 298.307,264.487 301.017,264.487 301.017,258.372 306.505,258.372 "/>
<path fill="#2E2E2C" d="M317.02,282.836h-5.491v-18.345h5.491V282.836z M317.02,262.538h-5.491v-4.166h5.491V262.538z"/>
<path fill="#2E2E2C" d="M330.014,278.275c2.38,0,4.396-1.951,4.396-4.634c0-2.674-2.017-4.623-4.396-4.623
	c-2.379,0-4.395,1.949-4.395,4.623C325.619,276.324,327.635,278.275,330.014,278.275 M330.014,263.894
	c6.673,0,9.883,5.254,9.883,9.747c0,4.498-3.21,9.762-9.883,9.762c-6.682,0-9.886-5.264-9.886-9.762
	C320.128,269.148,323.332,263.894,330.014,263.894"/>
<path fill="#2E2E2C" d="M343.004,264.819h5.127v1.619h0.061c0.564-0.892,1.723-2.581,4.992-2.581c1.754,0,3.705,0.733,4.698,1.591
	c0.993,0.858,2.118,2.315,2.118,5.917v11.468h-5.491v-10.012c0-1.289,0-3.803-2.874-3.803c-3.14,0-3.14,2.711-3.14,3.834v9.98
	h-5.491V264.819z"/>
<g>
</g>
<g>
</g>
<g>
</g>
<g>
</g>
<g>
</g>
<g>
</g>
</svg>
