<?xml version="1.0" encoding="utf-8"?>
<!-- Generator: Adobe Illustrator 13.0.2, SVG Export Plug-In . SVG Version: 6.00 Build 14948)  -->
<!DOCTYPE svg PUBLIC "-//W3C//DTD SVG 1.1//EN" "http://www.w3.org/Graphics/SVG/1.1/DTD/svg11.dtd">
<svg version="1.1" id="Layer_1" xmlns="http://www.w3.org/2000/svg" xmlns:xlink="http://www.w3.org/1999/xlink" x="0px" y="0px"
	 width="720px" height="720px" viewBox="0 0 720 720" enable-background="new 0 0 720 720" xml:space="preserve">
<g>
	<path fill="#E9C30B" d="M720,360c0,198.828-161.18,360-360,360C161.176,720,0,558.828,0,360C0,161.18,161.176,0,360,0
		C558.82,0,720,161.18,720,360"/>
	<path fill="#150E23" d="M635.6,248.386c-7.845,8.883-19.281,10.969-20.793,23.203c-0.703,5.68,1.815,10.742,3.996,15.199
		c2.168,4.43,6.598,8.562,6.405,12.801c-0.246,5.207-6,8.797-10.401,9.598c-0.81-27.531-25.039-35.664-55.207-31.199
		c-0.359-3.664,3.047-6.637,6.405-8c0.259-0.105,4.242-1.004,8-2.09c2.949-0.855,5.527-2.254,8.798-3.508
		c3.995-1.527,8.108-2.523,11.202-4c4.816-2.309,12.138-6.48,13.603-12.004c2.129-8.027-3.492-21.926,4.797-26.398
		c6.688-0.852,9.207,8.176,12.805,12.805C629.514,240.343,633.674,243.972,635.6,248.386"/>
	<path fill="#150E23" d="M235.599,360.39c-15.824,2.059-27.867-6.234-31.199-17.602c-3.52-12.012-0.973-31.141,4-37.602
		c10.691-13.879,39.094-12.5,44.801,7.203c2.488,8.586,2.121,22.473,0,30.398C250.658,352.312,243.838,357.703,235.599,360.39"/>
	<path fill="#150E23" d="M142.802,317.19c-9.371-0.504-20.758,1.02-28.801-0.801c0.445-5.68-0.945-13.215,0.797-17.602
		c7.836,0.348,19.855-1.52,25.602,0C149.799,301.277,149.951,311.515,142.802,317.19"/>
	<path fill="#150E23" d="M306.802,298.788c14.809,1.508,35.941-4.855,37.605,8c2.266,17.555-21.156,10.797-37.605,12
		C305.494,313.843,305.494,303.742,306.802,298.788"/>
	<path fill="#150E23" d="M392.404,357.19c-1.766-3.086-0.852-8.316-0.793-12.801c0.129-13.059-0.113-29.594,0-43.199
		c-0.039-1.367,0.59-2.066,1.586-2.402c17.691-1.414,31.973,0.566,36.812,12c3.051,15.121,2.961,31.008-4.005,39.199
		c-1.366,1.617-3.395,4.379-4,4.805c-0.44,0.312-3.312,1.477-5,2.062C411.279,358.834,402.541,359.589,392.404,357.19"/>
	<path fill="#150E23" d="M590.01,299.589c5.805,5.039,5.491,15.375-0.81,18.398c-4.512,2.176-29.93,2.199-30.397,0
		c-3.599-2.527-1.216-12.578-1.406-16.492c0.289-1.711,0.565-1.68,0.612-2.707C568.479,299.249,580.834,297.831,590.01,299.589"/>
	<path fill="#150E23" d="M114.799,357.988c-1.598-5.059-0.453-12.879-0.797-19.199c14.625,1.5,41.547-6.293,37.598,12
		C149.111,362.323,128.994,356.604,114.799,357.988"/>
	<path fill="#150E23" d="M482.006,433.991c9.871-1.016,23.242,5.656,26.402,15.996c2.473,8.129,2.168,27.914-0.801,34.402
		c-8.465,18.488-34.547,18.188-45.603,1.598c-2.913-4.371-6.391-22.332-3.202-33.598
		C461.455,443.022,470.248,435.194,482.006,433.991"/>
	<path fill="#150E23" d="M122.802,456.39c0.465-6.469-0.977-14.84,0.801-20c10.805,0.398,23.277-0.875,32.797,0.801
		c3.648,2.445,5.035,4.203,5.602,8.797C163.9,461.374,138.486,457.335,122.802,456.39"/>
	<path fill="#150E23" d="M367.6,456.39c0.469-6.469-0.965-14.84,0.809-20c10.176,0.871,30.316-3.023,36,3.199
		c3.035,3.332,3.18,9.16,0,14.401C401.096,459.437,372.662,454.694,367.6,456.39"/>
	<path fill="#150E23" d="M219.599,446.788h2.406c2.66,10.444,7.969,18.668,9.602,28.004h-21.605
		C211.635,465.46,216.924,457.214,219.599,446.788"/>
	<path fill="#150E23" d="M254.806,415.589c-1.008,0.336-1.637,1.035-1.605,2.397c0.461,5.945-0.953,13.763,0.801,18.402
		c9.168,0.438,20.133-0.934,28.004,0.801c-0.043,22.664,0.016,55.785,0,78.398c4.949,1.312,15.051,1.312,20,0
		c0.527-26.133-1.062-54.392,0.797-79.199h26.398c1.316-5.207,1.316-15.594,0-20.801L254.806,415.589L254.806,415.589z
		 M354.01,283.589c-14.402-11.105-42.125-3.141-67.208-5.602c-1.008,0.336-1.637,1.035-1.598,2.402
		c0.527,32.273-1.062,66.668,0.797,97.599c4.953,1.315,15.051,1.315,20,0c0.512-12.552-1.031-27.173,0.801-38.398
		c6.215,0.461,14.301-0.969,19.199,0.801c4.07,10.438,10.853,25.266,17.603,38.398c6.469-0.461,14.84,0.973,20-0.801
		c-1.81-13.806-12.004-25.586-16.801-40.798C368.826,329.187,369.85,295.815,354.01,283.589 M152.4,377.19
		c0.758-0.188,2.18-0.324,3.199-0.801c13.016-6.102,17.809-18.648,16.801-36.801c-0.332-2.883-1.52-4.906-4-8
		c-1.914-2.387-5.969-4.59-4.797-7.199c11.137-16.57,1.391-42.887-18.402-46.402c-13.762-2.438-31.789,1.773-50.402,0
		c-1,0.336-1.629,1.035-1.598,2.402v97.598C112.967,379.448,143.545,379.401,152.4,377.19 M183.604,311.589
		c-3.477,23.008,0.723,43.254,10.398,54.398c5.867,6.762,15.758,13.641,26.398,15.202c20.547,3.017,34.902-5.77,43.203-15.202
		c11.598-13.168,13.871-37.513,10.406-56c-0.023-0.105-0.676-2.691-0.809-3.199c-0.273-1.039-3.273-8.109-4-9.598
		c-1.812-3.727-9.953-12.027-12-13.602c-8.422-6.469-22.836-9.82-35.195-8C199.345,278.929,186.006,295.709,183.604,311.589
		 M447.607,222.788c4.902,1.77,12.988,0.34,19.19,0.801c1.595-5.672,0.892-17.309,0-20.801h-19.19
		C447.318,206.683,447.646,218.959,447.607,222.788 M338.006,202.788c-1.312,4.953-1.312,15.055,0,20
		c4.695,1.316,14.504,1.316,19.195,0c-0.461-6.469,0.98-14.84-0.801-20H338.006z M254.002,124.39
		c2.633,24.664-3.508,47.199,0,70.402c2.52,16.637,16.445,29.09,30.406,31.195c21.246,3.215,36.484-8.41,42.395-21.598
		c8.927-19.914-0.016-52.836,3.199-81.602c-4.949-1.305-15.051-1.305-20,0c-1.438,9.922-0.801,22.246-0.801,35.199
		c0,11.977,2.207,26.723-0.793,36.004c-5.059,15.609-28.246,14.316-33.602-0.801c-2.812-7.93-0.797-21.746-0.797-33.602v-36.801
		c-4.648-1.762-12.461-0.344-18.41-0.801C254.599,122.315,253.967,123.022,254.002,124.39 M405.209,119.589
		c-21.223-1.852-38.94,10.801-39.207,29.598c-0.293,20.84,15.539,26.203,31.199,30.402c6.961,1.867,21.891,4.152,22.398,12.801
		c0.772,12.898-17.32,15.379-26.402,11.199c-4.262-1.961-8.125-8.465-11.992-8.797c-5.938-0.508-13.227,6.117-16,9.598
		c5.625,10.445,16.902,19.918,31.195,21.598c13.647,1.609,29.785-3.371,37.604-13.598c7.845-10.262,7.431-30.449-2.395-40.801
		c-2.242-2.461-6.168-4.66-6.402-4.801c-3.879-2.18-13.586-3.84-21.604-6.398c-7.332-2.336-16.582-3.039-16.806-10.402
		c-0.305-10.723,14.935-11.391,21.609-8.797c4.844,1.883,7.062,8.32,11.191,8.797c4.608,0.535,14.983-6.426,16-8.797
		C428.615,128.663,418.771,120.777,405.209,119.589 M117.998,215.589c78.77,23.758,172.348,35.648,276.008,32
		c1.961,2.574,3.23,5.836,4.797,8.801c-4.397,6-6.526,14.273-9.602,21.598H372.4c-1.859,31.742-0.266,66.934-0.793,100
		c11.016,0.469,30.395,2.035,41.59,0.801c18.895-2.069,33.211-15.422,37.613-33.602c1.809-7.52,1.758-19.492,0.801-28.797
		c-0.797-7.633-4.703-13.848-5.605-20c5.5,2.504,10.453,5.547,15.199,8.797c0.527,24.273-1.065,50.66,0.801,73.602h64.793
		c1.316-5.207,1.316-15.594,0-20.8c-14.676-0.512-31.438,1.047-44.793-0.797c0.466-6.207-0.969-14.301,0.797-19.203h31.203
		c1.31-5.207,1.31-15.594,0-20.797c-10.43-0.504-22.897,1.023-32-0.801c0.457-5.949-0.957-13.754,0.797-18.402h43.996
		c1.316-4.945,1.316-15.047,0-20h-65.594c-0.647,3.617,1.543,10.074-1.604,11.199c-7.587-1.738-12.125-12.109-20.798-12.797
		c-5.141-0.406-8.832,2.137-14.395,4c-4.531-4.008-16.555-0.516-21.605-4c0.716-6.574,8.673-10.953,8.81-19.199
		c0.117-7.59-6.603-19.371-12.012-21.602c-6.056-2.508-17.125-0.332-24.793,0c-24.855,1.094-52.513,0.195-74.406-0.797
		c-61.543-2.793-123.852-13.785-171.199-28.805c-7.359-2.332-14.586-6.906-22.398-6.398c-5.516,5.891-0.328,21.492-1.602,28
		c-6.102-1.215-9.398-9.98-18.398-7.199c-7.203,2.227-5.141,15.199-5.602,25.598c-0.914,20.75-7.77,36.203-12,52
		c-2.461,9.184-4.594,19.363-4.801,29.602c-0.379,18.883,6.309,35.663,7.199,53.602c0.215,4.212-0.305,8.56,0,12.802
		c1.461,20.004,10.363,35.145,16,49.598c4.773,4.828,8.934,10.272,13.602,15.199v56.801c5.207,1.312,15.594,1.312,20.801,0
		c0.512-12.021-1.035-26.103,0.801-36.801h25.598c7.848,8.694,17.918,15.145,31.199,18.401c-0.859,7.138-4.859,11.138-5.598,18.398
		c4.898,1.766,12.992,0.34,19.199,0.801c5.16-7.555,4.227-16.422,10.402-22.397h35.195c4.18,7.862,7.184,15.215,8.801,22.397h6.402
		c5.141,13.531,18.254,19.078,39.199,16.801c1.641,0.552,1.879,1.875,3.199,3.199c3.086,3.086,1.93,1.086,3.199,4
		c0.441,1.004,1.047,1.504,1.605,2.398c3.336,5.362,4.289,11.793,7.203,17.602c2.953,5.898,9.133,13.332,13.598,16.801
		c11.095,8.634,27.103,14.027,47.996,11.207c1.435-11.086-2.016-24.082-4.797-33.604c3.523-7.824,11.547-14.027,17.598-21.603
		c3.164-3.953,6.027-7.901,8.81-12c2.812-4.151,4.621-9.051,8.793-12.004c2.52,1.215,2.664,4.81,4.004,7.203
		c10.41-1.578,11.523,12.207,21.598,12c4.211-0.086,10.832-6.147,16-9.602c2.652-1.767,4.707-3.31,8.004-4.798
		c1.66-0.75,7.25-3.327,8-3.202c0.371,0.065,3.146,2.688,3.996,3.202c8.965,5.438,21.345,6.996,32.703,4.523
		c2.215-0.479,5.771-1.66,7.449-2.367c7.617-3.219,6.465-5.25,12.648-6.16c4.733,14.652,13.352,25.716,20.793,37.603
		c6.237,9.945,15.659,29.812,26.405,33.602c10.066,3.56,22.449-1.895,25.603-10.401c1.664-4.5,1.444-14.898,0.801-20
		c-0.562-4.355-6.93-15.521-7.203-15.996c-1.848-3.224-3.566-5.961-5.604-8.805c-2.074-2.896-4.492-5.871-4.789-8.798
		c11.223-1.84,25.844-0.289,38.391-0.801c1.316-4.945,1.316-15.047,0-20c-13.984-1.637-34.844,0.396-45.598-0.801
		c-1.845-13.355-0.281-30.113-0.802-44.801c10.052-9.164,22.22-14.746,23.203-32c0.806-14.228-4.254-28.984-4-44.798
		c2.711-2.862,0.371-5.77,4.801-8.004c3.673,2.734,2.363,10.441,7.199,12c4.715,1.5,14.414,1.103,19.191,0
		c-4.728-14.199-11.164-26.69-16.789-40c7-6.031,14.18-11.852,22.395-16.797c7.849-4.719,20.828-12.227,20-23.203
		c-0.684-9.086-13.116-16-11.996-23.996c0.919-6.578,16.543-11.555,20-19.199c1.488-3.289,0.56-9.891-0.801-13.602
		c-2.34-6.367-9.004-11.953-14.395-19.203c-4.254-5.699-8.902-17.477-16.013-17.598c-4.952-0.082-13.69,7.547-16.797,12.801
		c-4.094,6.945-1.594,19.438-4.797,26.398c-4.035,8.785-26.961,12.141-37.598,16.801c-6.438,2.82-8.242,8.352-12,15.199
		c-1.078,2.652-6.23,1.246-6.398,4.801c0.527,32.273-1.065,66.668,0.793,97.598c4.441,1.31,13.966,1.31,18.406,0
		c0.527-12.266-1.065-26.656,0.801-37.598c4.188-1.301,13.406-1.301,17.591,0c2.383,2.684,3.711,6.426,4.805,10.398
		c-2.621,6.34-8.332,10.668-9.594,18.398c-2.853,17.349,5.137,38.676,1.594,56c-2.414,2.57-5.646,7.978-9.603,6.402v-15.199
		c-5.202-1.305-15.586-1.305-20.797,0v99.199c2.867,1.664,8.648,0.418,12.802,0.801c7.354,16.258,25.526,25.474,20.793,51.199
		c-0.402,1.52-2.349,6.395-7.992,3.199c-9.431-8.466-15.621-20.72-24.004-34.398c-2.97-4.84-7.646-10.5-11.199-17.602
		c-3.293-6.578-8.31-15.841-7.996-21.599c0.229-4.27,3.883-7.301,4.793-11.203c1.555-6.604,1.672-14.504,1.609-20.793
		c-0.185-16.34-4.646-32.078-16.004-41.604c-14.052-11.773-39.773-14.273-56.005-4c-17.19,10.891-24.534,33.379-20.793,61.602
		c0.711,5.406,4.935,12.629,8.789,20c-8.547,2.379-12.508,9.359-20.793,12.004c-5.27-12.875-12.379-23.891-16.805-37.604
		c9.793-5.414,18.406-16.027,18.406-28.801c0-8.359-4.353-18.312-9.599-23.199c-15.137-14.07-47.707-6.375-71.207-7.199
		c0.021,32.84-0.02,69.82,0,100h20c2.31-11.285-0.719-27.922,1.605-39.199c4.633,1.763,12.453,0.345,18.391,0.797
		c3.332,5.734,5.48,12.664,8.801,18.402c-5.577,3.699-8.676,8.961-11.995,14.398c-3.048,5.016-6.711,10.879-10.402,15.198
		c-7.055,8.271-16.5,14.156-19.191,21.603c-3.854,10.641,3.755,18.754,2.392,28c-17.047,1.66-28.898-8.32-35.195-18.398
		c-3.184-5.09-3.582-11.112-6.398-16.801c-3.331-6.711-11.512-17.68-17.604-19.199c-7.719-1.922-21.43,3.035-28-3.203
		c-11.043-30.815-24.141-64.672-38.391-102.397h-20.008c-6.508,16.414-12.863,34.871-19.203,52
		c-2.133,5.776-4.078,12.094-7.996,16.801c-8.43-0.902-15.098-3.574-19.203-8.801c18.113-6.09,24.184-33.767,12-48.801
		c-4.355-5.375-13.734-10.267-22.398-11.199c-15.539-1.676-35.227,0.594-52,0.801c-2.305,4.891,0.73,15.133-1.602,20
		c-6.914-5.09-11.078-20.535-11.199-20.801c-1.559-3.551-5.16-12.984-5.598-20.798c-0.211-3.733,1.164-7.684,0.797-12.004
		c-0.797-9.426-2.992-20.062-4.801-30.397c-2.719-15.594-3.211-27.555-0.801-41.602c3.609-20.934,12.832-32.391,14.402-54.398
		c0.422-5.816-0.941-14.785,0.801-20.801c7.52,2.348,11.434,8.305,22.398,7.199C121.447,240.026,116.201,221.183,117.998,215.589
		 M119.599,125.988c0.129-0.133,0.676,0.129,0.801,0c30.121-29.559,59.727-51.238,98.398-69.598
		c37.863-17.965,82.852-31.203,136.008-31.203c55.125,0,100.065,10.711,139.198,28.004
		c78.095,34.512,133.398,88.965,169.603,165.598c17.77,37.605,30.729,84.09,31.199,134.402
		c0.754,80.859-24.16,144.344-57.599,193.605c-33.477,49.293-78.203,89.047-134.405,116.801c-35.406,17.48-84.492,30.66-136,31.195
		c-53.289,0.559-100.062-9.91-140-27.203C150.787,634.683,95.267,578.425,57.201,504.39c-9.227-17.938-16.727-39.734-22.402-61.602
		c-5.746-22.177-9.324-47.449-9.598-73.603c-0.586-56.062,9.516-101.66,26.398-140.801c8.473-19.625,18.262-37.852,29.602-54.395
		C92.541,157.456,105.185,141.824,119.599,125.988"/>
</g>
</svg>
